<svg width="615" height="382" viewBox="0 0 615 382" fill="none" xmlns="http://www.w3.org/2000/svg">
<g clip-path="url(#clip0_488_7)">
<path d="M307.321 245.663L229.329 123.752L229.212 226.183L94.799 -0.110352H0.23999V381.908H93.742L94.047 155.898L227.073 371.78L307.321 245.663Z" fill="#002F56"/>
<path d="M229.352 98.0906H322.735L322.947 97.0096V-0.110352H229.446L229.328 97.0096L229.352 98.0906Z" fill="#002F56"/>
<path d="M467.065 204C444.694 203.576 424.482 217.292 416.613 238.237C429.713 218.647 454.657 210.775 476.629 219.297C486.78 223.433 500.128 230.107 510.702 226.535C500.645 212.421 484.395 204.029 467.065 204Z" fill="#143055"/>
<path d="M573.02 249.963C573.02 238.52 566.793 235.864 553.869 231.165C544.281 227.828 533.401 224.068 525.482 213.728C523.931 211.684 522.498 209.381 520.97 206.937C517.549 200.608 512.909 195.017 507.318 190.488C499.775 184.943 489.882 182.24 477.051 182.24C451.307 182.258 428.113 197.798 418.305 221.601C430.705 204.394 451.313 195.072 472.423 197.118C493.532 199.165 511.966 212.273 520.829 231.541C525.258 238.848 533.992 242.338 542.237 240.094C554.856 237.392 553.986 249.329 573.044 253.371L573.02 249.963Z" fill="#143055"/>
<path d="M614.636 247.519V247.261C614.354 171.501 552.858 106.691 477.051 106.691C430.752 106.659 387.549 129.944 362.119 168.634L361.626 167.788L322.712 106.691H229.352L318.059 245.616L231.49 381.908H322.171L361.626 321.305L401.785 381.908H492.49L410.245 252.477C408.879 249.956 408.138 247.143 408.083 244.276C408.076 225.995 415.336 208.461 428.262 195.534C441.189 182.608 458.723 175.348 477.004 175.355C515.119 175.355 521.487 198.148 529.712 208.864C545.949 230.013 578.378 220.754 578.378 248.342C578.474 254.806 582.012 260.728 587.659 263.876C593.305 267.025 600.203 266.922 605.753 263.606C611.303 260.29 614.662 254.265 614.566 247.801V247.519H614.636Z" fill="#002F56"/>
<path d="M614.731 267.023C615.653 273.466 614.741 280.039 612.1 285.987C606.93 297.948 598.306 293.953 598.306 293.953C598.306 293.953 590.88 290.334 595.392 283.402C600.397 275.671 610.29 276.564 614.731 267.023Z" fill="#002F56"/>
</g>
<defs>
<clipPath id="clip0_488_7">
<rect width="615" height="382" fill="white"/>
</clipPath>
</defs>
</svg>
